# xmcd
# 
# Track frame offsets:
#     150
#     17735
#     31479
#     47461
#     67702
#     79494
#     101768
#     119837
#     139466
#     160524
#     175962
# 
# Disc length: 2507
# 
# Revision: 2
# Processed by: cddbd v1.5.2PL0 Copyright (c) Steve Scherf et al.
# Submitted via: fre:ac v1.0.17
# 
DISCID=9209c90b
DTITLE=Dick Annegarn - Soleil du Soir
DYEAR=0
DGENRE=Chanson francaise
TTITLE0=D'abord un verre
TTITLE1=Jacques
TTITLE2=Quelle poule pond tant ?
TTITLE3=Le dernier Village
TTITLE4=Soleil du Soir
TTITLE5=Bluesabelle
TTITLE6=Sans famille
TTITLE7=Le Blues de Londres
TTITLE8=Theo
TTITLE9=Soldat
TTITLE10=Decadons
EXTD=
EXTT0=
EXTT1=
EXTT2=
EXTT3=
EXTT4=
EXTT5=
EXTT6=
EXTT7=
EXTT8=
EXTT9=
EXTT10=
PLAYORDER=
